<svg id="visual" viewBox="0 0 900 600" width="900" height="600" xmlns="http://www.w3.org/2000/svg" xmlns:xlink="http://www.w3.org/1999/xlink" version="1.1"><rect x="0" y="0" width="900" height="600" fill="#001220"></rect><defs><linearGradient id="grad1_0" x1="33.3%" y1="100%" x2="100%" y2="0%"><stop offset="20%" stop-color="#001220" stop-opacity="1"></stop><stop offset="80%" stop-color="#001220" stop-opacity="1"></stop></linearGradient></defs><defs><linearGradient id="grad2_0" x1="0%" y1="100%" x2="66.7%" y2="0%"><stop offset="20%" stop-color="#001220" stop-opacity="1"></stop><stop offset="80%" stop-color="#001220" stop-opacity="1"></stop></linearGradient></defs><g transform="translate(900, 600)"><path d="M-351.5 0C-327.2 -21.5 -302.8 -42.9 -293.5 -67C-284.1 -91 -289.6 -117.7 -277.5 -133.6C-265.4 -149.6 -235.6 -154.9 -225.9 -180.2C-216.3 -205.5 -226.8 -250.9 -212.6 -266.6C-198.4 -282.3 -159.5 -268.2 -134.5 -279.3C-109.5 -290.4 -98.3 -326.5 -78.2 -342.7C-58.1 -358.9 -29.1 -355.2 0 -351.5L0 0Z" fill="#FBAE3C"></path></g><g transform="translate(0, 0)"><path d="M351.5 0C330.4 22.7 309.3 45.5 299.3 68.3C289.3 91.1 290.5 114.1 284.7 137.1C278.9 160.2 266.2 183.3 248.6 198.3C231 213.2 208.5 219.9 193.9 243.1C179.3 266.4 172.7 306.1 152.5 316.7C132.3 327.4 98.5 309.1 70.8 310C43.1 311 21.5 331.3 0 351.5L0 0Z" fill="#FBAE3C"></path></g></svg>